<?xml version="1.0" encoding="UTF-8"?>
<!DOCTYPE svg PUBLIC "-//W3C//DTD SVG 1.1//EN" "http://www.w3.org/Graphics/SVG/1.1/DTD/svg11.dtd">
<!-- Creator: CorelDRAW -->
<svg xmlns="http://www.w3.org/2000/svg" xml:space="preserve" width="512px" height="512px" version="1.1" style="shape-rendering:geometricPrecision; text-rendering:geometricPrecision; image-rendering:optimizeQuality; fill-rule:evenodd; clip-rule:evenodd"
viewBox="0 0 512 512"
 xmlns:xlink="http://www.w3.org/1999/xlink">
 <defs>
  <style type="text/css">
   <![CDATA[
    .fil5 {fill:#1D81CE}
    .fil0 {fill:#4D4D4D}
    .fil2 {fill:#99A4AC}
    .fil4 {fill:#D9F2F2}
    .fil1 {fill:#F1F1F1}
    .fil3 {fill:#F3A766}
   ]]>
  </style>
 </defs>
 <g id="Layer_x0020_1">
  <metadata id="CorelCorpID_0Corel-Layer"/>
  <path class="fil0" d="M241 220c-11,0 -11,-13 -8,-23 -8,5 -22,12 -35,14 -1,6 -2,15 0,24 4,44 34,65 60,65 6,-1 12,-2 18,-4 3,-2 0,-1 5,-2 17,-8 31,-27 34,-59 1,-7 1,-13 0,-19 -6,2 -22,5 -27,-1 -5,-5 -3,-12 -3,-17 -10,3 -31,22 -44,22zm46 105l-9 -15c-6,2 -13,4 -20,4 0,-1 0,-1 0,-1 -8,0 -16,-1 -23,-4l-9 15 31 39 30 -38zm4 -21l9 16c3,3 75,42 82,46 26,15 26,40 26,41l0 37c55,-44 90,-112 90,-188 0,-133 -109,-242 -242,-242 -133,0 -242,109 -242,242 0,76 35,144 90,188l0 -37c0,-1 0,-26 27,-41 6,-4 78,-43 81,-46l10 -17c-23,-14 -34,-37 -38,-66 -2,-10 -1,-19 0,-26 -9,-3 -16,-11 -14,-27 11,-86 141,-87 141,-47 0,2 0,3 0,4 37,8 40,47 17,67 5,41 -6,78 -37,96zm-183 162c-4,-2 -28,-24 -33,-29 -100,-100 -100,-262 0,-362 100,-100 262,-100 362,0 100,100 100,262 0,362 -88,89 -228,100 -329,29zm286 -11l0 -48c0,-1 0,-14 -12,-24 -5,15 -14,50 -12,86 8,-4 16,-9 24,-14zm-25 -80l-46 -26c-6,12 -60,109 -62,111 -4,3 -9,2 -11,-2l-61 -109 -47 26c5,15 17,57 13,101 64,29 138,29 202,0 -4,-44 8,-86 12,-101zm-58 -33l-14 -8 -34 44c-3,4 -9,4 -12,0l-36 -44 -14 9 55 98 55 -99zm-181 41c-12,11 -12,24 -12,24l0 48c8,5 16,10 24,14 2,-36 -7,-70 -12,-86zm169 -179c33,1 44,-45 7,-49 -12,-1 -9,-13 -9,-18 0,-5 -10,-10 -27,-11 -32,-2 -81,13 -86,60 0,3 -1,9 2,10 8,5 33,-6 47,-15 4,-3 10,-2 12,0 6,4 4,15 1,23 15,-8 34,-26 46,-19 9,5 7,14 7,19zm-4 0c0,0 0,0 0,0zm-54 -11l0 0zm70 -49l0 0z"/>
  <path class="fil1" d="M328 208c5,41 -6,78 -37,96l9 16c3,3 75,42 82,46 26,15 26,40 26,41l0 37c55,-44 90,-112 90,-188 0,-133 -109,-242 -242,-242 -133,0 -242,109 -242,242 0,76 35,144 90,188l0 -37c0,-1 0,-26 27,-41 6,-4 78,-43 81,-46l10 -17c-23,-14 -34,-37 -38,-66 -2,-10 -1,-19 0,-26 -9,-3 -16,-11 -14,-27 11,-86 141,-87 141,-47 0,2 0,3 0,4 37,8 40,47 17,67z"/>
  <path class="fil2" d="M246 204c15,-8 34,-26 46,-19 9,5 7,14 7,19 33,1 44,-45 7,-49 -12,-1 -9,-13 -9,-18 0,-5 -10,-10 -27,-11 -32,-2 -81,13 -86,60 0,3 -1,9 2,10 8,5 33,-6 47,-15 4,-3 10,-2 12,0 6,4 4,15 1,23z"/>
  <path class="fil3" d="M285 198c-10,3 -31,22 -44,22 -11,0 -11,-13 -8,-23 -8,5 -22,12 -35,14 -1,6 -2,15 0,24 4,44 34,65 60,65 6,-1 12,-2 18,-4 3,-2 0,-1 5,-2 17,-8 31,-27 34,-59 1,-7 1,-13 0,-19 -6,2 -22,5 -27,-1 -5,-5 -3,-12 -3,-17z"/>
  <path class="fil3" d="M278 310c-6,2 -13,4 -20,4 0,-1 0,-1 0,-1 -8,0 -16,-1 -23,-4l-9 15 31 39 30 -38 -9 -15z"/>
  <path class="fil4" d="M263 378c-3,4 -9,4 -12,0l-36 -44 -14 9 55 98 55 -99 -14 -8 -34 44z"/>
  <path class="fil5" d="M323 349c-6,12 -60,109 -62,111 -4,3 -9,2 -11,-2l-61 -109 -47 26c5,15 17,57 13,101 64,29 138,29 202,0 -4,-44 8,-86 12,-101l-46 -26z"/>
  <path class="fil5" d="M382 383c-5,15 -14,50 -12,86 8,-4 16,-9 24,-14l0 -48c0,-1 0,-14 -12,-24z"/>
  <path class="fil5" d="M142 469c2,-36 -7,-70 -12,-86 -12,11 -12,24 -12,24l0 48c8,5 16,10 24,14z"/>
 </g>
</svg>
